<mxfile host="app.diagrams.net" agent="Mozilla/5.0 (Macintosh; Intel Mac OS X 10_15_7) AppleWebKit/537.36 (KHTML, like Gecko) Chrome/136.0.0.0 Safari/537.36" version="26.2.14">
  <diagram name="Page-1" id="2vTVMtfec4w6KAtaP_ZN">
    <mxGraphModel dx="2968" dy="1126" grid="1" gridSize="10" guides="1" tooltips="1" connect="1" arrows="1" fold="1" page="1" pageScale="1" pageWidth="1169" pageHeight="827" math="0" shadow="0">
      <root>
        <mxCell id="0" />
        <mxCell id="1" parent="0" />
        <mxCell id="Cx6Hk1srswsbLxOnWkwv-1" value="DC data Parser" style="rounded=0;whiteSpace=wrap;html=1;" vertex="1" parent="1">
          <mxGeometry x="-650" y="150" width="220" height="110" as="geometry" />
        </mxCell>
        <mxCell id="Cx6Hk1srswsbLxOnWkwv-3" value="LR Data Parser" style="rounded=0;whiteSpace=wrap;html=1;" vertex="1" parent="1">
          <mxGeometry x="-650" y="400" width="220" height="110" as="geometry" />
        </mxCell>
        <mxCell id="Cx6Hk1srswsbLxOnWkwv-4" value="ChirpStack" style="rounded=0;whiteSpace=wrap;html=1;" vertex="1" parent="1">
          <mxGeometry x="-320" y="400" width="220" height="110" as="geometry" />
        </mxCell>
        <mxCell id="Cx6Hk1srswsbLxOnWkwv-5" value="ChirpStack" style="rounded=0;whiteSpace=wrap;html=1;" vertex="1" parent="1">
          <mxGeometry x="-320" y="150" width="220" height="110" as="geometry" />
        </mxCell>
        <mxCell id="Cx6Hk1srswsbLxOnWkwv-6" value="CSV file Storage" style="rounded=0;whiteSpace=wrap;html=1;" vertex="1" parent="1">
          <mxGeometry x="10" y="150" width="220" height="110" as="geometry" />
        </mxCell>
        <mxCell id="Cx6Hk1srswsbLxOnWkwv-7" value="Node Red" style="rounded=0;whiteSpace=wrap;html=1;" vertex="1" parent="1">
          <mxGeometry x="10" y="400" width="220" height="110" as="geometry" />
        </mxCell>
        <mxCell id="Cx6Hk1srswsbLxOnWkwv-8" value="LR Gateway" style="rounded=0;whiteSpace=wrap;html=1;" vertex="1" parent="1">
          <mxGeometry x="-470" y="580" width="220" height="110" as="geometry" />
        </mxCell>
        <mxCell id="Cx6Hk1srswsbLxOnWkwv-9" value="MQTT Live V3&amp;nbsp;" style="rounded=0;whiteSpace=wrap;html=1;" vertex="1" parent="1">
          <mxGeometry x="700" y="100" width="220" height="110" as="geometry" />
        </mxCell>
        <mxCell id="Cx6Hk1srswsbLxOnWkwv-10" value="SharedAirDFW" style="rounded=0;whiteSpace=wrap;html=1;" vertex="1" parent="1">
          <mxGeometry x="530" y="359" width="220" height="110" as="geometry" />
        </mxCell>
        <mxCell id="Cx6Hk1srswsbLxOnWkwv-11" value="Grafana" style="rounded=0;whiteSpace=wrap;html=1;" vertex="1" parent="1">
          <mxGeometry x="310" y="580" width="220" height="110" as="geometry" />
        </mxCell>
        <mxCell id="Cx6Hk1srswsbLxOnWkwv-12" value="Grafana" style="rounded=0;whiteSpace=wrap;html=1;" vertex="1" parent="1">
          <mxGeometry x="640" y="620" width="220" height="110" as="geometry" />
        </mxCell>
        <mxCell id="Cx6Hk1srswsbLxOnWkwv-13" value="Amazon S3&amp;nbsp;" style="rounded=0;whiteSpace=wrap;html=1;" vertex="1" parent="1">
          <mxGeometry x="365" y="210" width="220" height="110" as="geometry" />
        </mxCell>
        <mxCell id="Cx6Hk1srswsbLxOnWkwv-14" value="POSTGRESQL" style="strokeWidth=2;html=1;shape=mxgraph.flowchart.database;whiteSpace=wrap;" vertex="1" parent="1">
          <mxGeometry x="150" y="630" width="110" height="130" as="geometry" />
        </mxCell>
        <mxCell id="Cx6Hk1srswsbLxOnWkwv-15" value="INFLUX" style="strokeWidth=2;html=1;shape=mxgraph.flowchart.database;whiteSpace=wrap;" vertex="1" parent="1">
          <mxGeometry x="970" y="414" width="110" height="130" as="geometry" />
        </mxCell>
        <mxCell id="Cx6Hk1srswsbLxOnWkwv-17" value="LR MQTT" style="sketch=0;outlineConnect=0;fontColor=#232F3E;gradientColor=none;strokeColor=#232F3E;fillColor=#ffffff;dashed=0;verticalLabelPosition=bottom;verticalAlign=top;align=center;html=1;fontSize=12;fontStyle=0;aspect=fixed;shape=mxgraph.aws4.resourceIcon;resIcon=mxgraph.aws4.mqtt_protocol;" vertex="1" parent="1">
          <mxGeometry x="-410" y="280" width="60" height="60" as="geometry" />
        </mxCell>
        <mxCell id="Cx6Hk1srswsbLxOnWkwv-18" value="DC MQTT" style="sketch=0;outlineConnect=0;fontColor=#232F3E;gradientColor=none;strokeColor=#232F3E;fillColor=#ffffff;dashed=0;verticalLabelPosition=bottom;verticalAlign=top;align=center;html=1;fontSize=12;fontStyle=0;aspect=fixed;shape=mxgraph.aws4.resourceIcon;resIcon=mxgraph.aws4.mqtt_protocol;" vertex="1" parent="1">
          <mxGeometry x="-280" y="280" width="60" height="60" as="geometry" />
        </mxCell>
        <mxCell id="Cx6Hk1srswsbLxOnWkwv-19" value="MQTT Subscriber V2" style="rounded=0;whiteSpace=wrap;html=1;" vertex="1" parent="1">
          <mxGeometry x="710" y="240" width="220" height="110" as="geometry" />
        </mxCell>
      </root>
    </mxGraphModel>
  </diagram>
</mxfile>
